<?xml version="1.0" standalone="no"?>
<!DOCTYPE svg PUBLIC "-//W3C//DTD SVG 20010904//EN"
 "http://www.w3.org/TR/2001/REC-SVG-20010904/DTD/svg10.dtd">
<svg version="1.0" xmlns="http://www.w3.org/2000/svg"
 width="256.000000pt" height="256.000000pt" viewBox="0 0 256.000000 256.000000"
 preserveAspectRatio="xMidYMid meet">

<g transform="translate(0.000000,256.000000) scale(0.100000,-0.100000)"
fill="#000000" stroke="none">
<path d="M1170 2385 c-8 -2 -49 -9 -90 -15 -212 -35 -405 -135 -573 -299 -261
-254 -377 -599 -322 -961 36 -240 144 -448 322 -621 134 -130 263 -209 428
-262 137 -44 191 -52 360 -51 138 1 173 5 257 27 427 113 743 446 823 870 19
103 19 311 0 414 -80 424 -399 760 -823 869 -73 19 -130 26 -232 29 -74 2
-142 2 -150 0z m66 -70 c-3 -9 -54 -164 -113 -345 l-107 -330 -363 0 c-200 0
-363 2 -363 5 0 15 73 157 109 212 52 80 176 210 260 272 150 111 381 198 535
200 40 1 47 -2 42 -14z m259 -4 c281 -58 521 -223 678 -467 43 -66 97 -175 97
-195 0 -5 -156 -8 -362 -7 l-363 3 -97 295 c-54 162 -104 316 -112 343 l-15
47 42 0 c23 0 83 -9 132 -19z m-173 -166 l35 -115 -77 0 -77 0 36 115 c20 63
39 115 42 115 3 0 21 -52 41 -115z m-82 -335 l0 -170 -80 0 c-44 0 -80 3 -80
7 0 11 92 297 101 316 6 9 21 17 34 17 l25 0 0 -170z m187 10 c29 -85 52 -161
53 -167 0 -9 -22 -13 -80 -13 l-80 0 0 171 0 170 28 -3 c26 -3 30 -11 79 -158z
m-717 -366 c0 -106 -3 -133 -12 -127 -20 12 -342 244 -352 254 -6 5 70 9 177
9 l187 0 0 -136z m253 24 c-57 -182 -50 -172 -116 -172 l-57 -1 0 143 0 142
104 0 104 0 -35 -112z m609 -102 c38 -115 65 -213 61 -217 -27 -25 -345 -249
-353 -249 -8 0 -321 221 -352 249 -6 5 92 328 125 414 6 16 27 17 229 15 l222
-3 68 -209z m97 52 l-1 -163 -49 150 c-27 83 -49 156 -49 163 0 8 17 12 50 12
l50 0 -1 -162z m546 153 c-6 -5 -89 -66 -185 -135 l-175 -127 -3 50 c-2 36 -8
54 -23 64 -19 14 -19 14 1 32 15 14 20 31 20 72 l0 53 187 0 c107 0 183 -4
178 -9z m-445 -61 c0 -27 -4 -50 -10 -50 -5 0 -10 23 -10 50 0 28 5 50 10 50
6 0 10 -22 10 -50z m546 -22 c74 -346 -35 -709 -292 -966 -47 -46 -87 -82 -89
-80 -8 8 -225 682 -223 690 4 10 582 428 586 423 3 -2 10 -32 18 -67z m-1747
-157 l280 -210 -23 -73 c-82 -262 -190 -585 -198 -593 -16 -16 -196 180 -250
271 -52 89 -96 195 -124 299 -37 137 -20 537 21 521 8 -3 140 -100 294 -215z
m1203 -10 c2 -53 -1 -76 -10 -79 -9 -3 -12 19 -12 84 0 107 17 102 22 -5z
m-892 -100 c0 -30 -12 -31 -45 -5 l-30 24 38 0 c30 0 37 -4 37 -19z m50 -169
c-38 -4 -44 0 -35 27 6 21 6 21 37 -2 l30 -22 -32 -3z m738 15 c2 -11 -3 -17
-16 -17 -17 0 -21 -15 -38 -127 l-19 -127 -12 85 c-21 151 -22 145 22 178 43
32 58 34 63 8z m-698 -132 c0 -37 -4 -65 -10 -65 -6 0 -10 28 -10 65 0 37 4
65 10 65 6 0 10 -28 10 -65z m-100 -143 l0 -197 -81 -59 c-44 -32 -82 -56 -84
-54 -3 3 158 508 163 508 1 0 2 -89 2 -198z m283 123 c43 -31 77 -58 75 -60
-17 -15 -270 -195 -273 -195 -3 0 -5 36 -5 80 l0 80 30 0 c50 0 70 30 70 106
0 52 3 64 13 57 6 -6 47 -36 90 -68z m297 -60 l0 -86 -57 42 c-32 23 -59 43
-61 45 -5 3 101 83 111 83 4 1 7 -37 7 -84z m84 -40 c21 -119 21 -122 -4 -100
-17 16 -20 31 -20 108 0 50 2 88 4 86 3 -2 12 -45 20 -94z m132 -192 c-3 -3
-19 5 -36 17 -26 18 -29 24 -17 34 8 6 23 58 33 121 l19 110 3 -139 c1 -76 0
-141 -2 -143z m189 -141 c-2 -2 -29 15 -59 37 l-56 42 0 142 0 142 60 -179
c33 -99 58 -182 55 -184z m-279 128 c154 -111 283 -206 287 -210 12 -11 -111
-78 -213 -117 -136 -51 -241 -66 -410 -60 -158 6 -243 23 -368 77 -83 35 -164
81 -168 95 -4 13 568 426 582 421 7 -3 137 -95 290 -206z"/>
<path d="M743 1989 c4 -35 10 -104 13 -152 4 -48 10 -86 14 -85 15 6 239 163
240 168 0 3 -57 32 -127 64 -71 33 -132 62 -137 64 -5 3 -6 -22 -3 -59z"/>
<path d="M1169 1387 c-75 -26 -135 -67 -152 -105 -9 -20 -9 -26 1 -30 7 -2 36
-17 65 -33 129 -73 133 -74 260 -73 102 1 122 4 145 21 19 15 27 30 28 54 1
19 5 51 9 72 12 59 -10 81 -96 101 -99 22 -181 20 -260 -7z m180 -6 c8 -6 -3
-7 -30 -4 -24 2 -69 -3 -99 -11 -64 -17 -78 -13 -29 8 37 17 136 21 158 7z
m33 -40 c11 -12 10 -13 -7 -6 -11 4 -49 11 -85 16 l-65 7 72 -2 c46 -1 77 -7
85 -15z m-187 -62 c0 -115 169 -121 177 -6 l3 42 33 -32 c41 -40 39 -70 -5
-96 -75 -43 -212 -28 -283 32 l-35 29 20 22 c17 19 67 48 85 50 3 0 5 -18 5
-41z m45 -9 c-19 -13 -30 -13 -30 0 0 6 10 10 23 10 18 0 19 -2 7 -10z"/>
<path d="M1952 1058 c-28 -73 -49 -134 -47 -137 6 -6 260 30 275 39 9 5 -15
42 -75 119 -49 61 -91 111 -95 111 -3 0 -30 -59 -58 -132z"/>
<path d="M503 1098 c-76 -102 -107 -148 -102 -148 2 0 60 -7 129 -15 190 -23
177 -36 111 115 -32 71 -60 133 -64 136 -3 3 -37 -36 -74 -88z"/>
</g>
</svg>
